<svg width="24" height="24" viewBox="0 0 24 24" fill="none" xmlns="http://www.w3.org/2000/svg">
<path fill-rule="evenodd" clip-rule="evenodd" d="M2.25 8.5C2.25 5.87665 4.37665 3.75 7 3.75H17C19.6234 3.75 21.75 5.87665 21.75 8.5V15.5C21.75 18.1234 19.6234 20.25 17 20.25H7C4.37665 20.25 2.25 18.1234 2.25 15.5V8.5ZM7 5.25C5.20507 5.25 3.75 6.70507 3.75 8.5V15.5C3.75 17.2949 5.20507 18.75 7 18.75H17C18.7949 18.75 20.25 17.2949 20.25 15.5V8.5C20.25 6.70507 18.7949 5.25 17 5.25H7Z" fill="#051C2C"/>
<path fill-rule="evenodd" clip-rule="evenodd" d="M6.3127 8.68408C6.47824 8.30439 6.92025 8.13079 7.29994 8.29634L11.5046 10.1296L11.2048 10.8171L11.5046 10.1296C11.8219 10.268 12.1825 10.2685 12.5003 10.1311L12.5003 10.1311L16.7025 8.31405C17.0827 8.14966 17.5242 8.3246 17.6886 8.70479C17.853 9.08498 17.678 9.52646 17.2979 9.69085L13.0956 11.5079C12.3965 11.8102 11.6033 11.809 10.9051 11.5046L6.70044 9.67133C6.32075 9.50578 6.14715 9.06377 6.3127 8.68408Z" fill="#051C2C"/>
</svg>
