<svg width="24" height="24" viewBox="0 0 24 24" fill="none" xmlns="http://www.w3.org/2000/svg">
<path fill-rule="evenodd" clip-rule="evenodd" d="M3.78581 7.83199C3.58581 6.77199 3.89481 5.70299 4.63581 4.96199L5.28781 4.30999C6.06881 3.52899 7.33481 3.52899 8.11581 4.30999L9.28981 5.48399C9.87581 6.06999 9.87581 7.01899 9.20481 7.68999L8.38581 8.50799C8.16881 8.72499 8.09581 9.05399 8.21981 9.33499C8.80581 10.664 9.68781 11.974 10.8578 13.144C12.0278 14.314 13.3378 15.197 14.6668 15.784C14.9478 15.908 15.2768 15.835 15.4938 15.618L16.3968 14.714C16.9818 14.128 17.9318 14.128 18.5178 14.714L19.6908 15.887C20.4718 16.668 20.4718 17.934 19.6908 18.715L19.0398 19.366C18.2988 20.107 17.2298 20.416 16.1698 20.216C13.5568 19.722 10.6958 18.204 8.24681 15.755C5.79781 13.306 4.27981 10.445 3.78581 7.83199ZM15.3356 13.6539C15.3355 13.654 15.3357 13.6538 15.3356 13.6539C16.5071 12.4807 18.4073 12.4822 19.5785 13.6533L20.7515 14.8263C22.1183 16.1931 22.1183 18.4089 20.7515 19.7757L20.1005 20.4267C18.9879 21.5392 17.4089 21.9763 15.8917 21.69C12.9424 21.1324 9.81762 19.4471 7.18615 16.8157C4.55468 14.1842 2.8695 11.0599 2.31192 8.11064C2.02565 6.59342 2.46262 5.01387 3.57515 3.90133L4.22715 3.24933C5.59394 1.88255 7.80968 1.88255 9.17647 3.24933L10.3505 4.42333C11.5754 5.64826 11.4677 7.54846 10.2655 8.75065L9.8148 9.20077C10.3174 10.1975 11.0184 11.1832 11.9185 12.0833C12.8187 12.9836 13.8046 13.6853 14.8013 14.1887L15.3356 13.6539Z" fill="#051C2C"/>
</svg>
