<svg width="24" height="24" viewBox="0 0 24 24" fill="none" xmlns="http://www.w3.org/2000/svg">
<path fill-rule="evenodd" clip-rule="evenodd" d="M11.25 3C11.25 2.58579 11.5858 2.25 12 2.25C17.3962 2.25 21.75 6.60379 21.75 12C21.75 17.3962 17.3962 21.75 12 21.75C11.5858 21.75 11.25 21.4142 11.25 21C11.25 20.5858 11.5858 20.25 12 20.25C16.5678 20.25 20.25 16.5678 20.25 12C20.25 7.43221 16.5678 3.75 12 3.75C11.5858 3.75 11.25 3.41421 11.25 3Z" fill="#051C2C"/>
<path fill-rule="evenodd" clip-rule="evenodd" d="M12 3.75C7.43221 3.75 3.75 7.43221 3.75 12C3.75 16.5678 7.43221 20.25 12 20.25C12.4142 20.25 12.75 20.5858 12.75 21C12.75 21.4142 12.4142 21.75 12 21.75C6.60379 21.75 2.25 17.3962 2.25 12C2.25 6.60379 6.60379 2.25 12 2.25C12.4142 2.25 12.75 2.58579 12.75 3C12.75 3.41421 12.4142 3.75 12 3.75Z" fill="#051C2C"/>
<path fill-rule="evenodd" clip-rule="evenodd" d="M9.52409 3.67461C10.6615 1.77513 13.3377 1.77585 14.4758 3.67439L14.4759 3.67461C17.508 8.73684 17.508 15.264 14.476 20.3263M9.52402 3.67473C6.49197 8.73698 6.49199 15.2641 9.52409 20.3264C10.6612 22.2256 13.3387 22.2256 14.4759 20.3264M13.1891 4.44538C12.6331 3.51817 11.3656 3.51893 10.811 4.44526L10.8109 4.44538C8.06303 9.03311 8.06303 14.9679 10.8109 19.5556L10.811 19.5557C11.3658 20.4824 12.6342 20.4824 13.189 19.5557L13.1891 19.5556C15.9369 14.968 15.937 9.0333 13.1892 4.4456" fill="#051C2C"/>
<path fill-rule="evenodd" clip-rule="evenodd" d="M3.29532 7.63665C3.41756 7.24089 3.83749 7.01915 4.23325 7.14139C8.98107 8.60786 15.0228 8.60784 19.7695 7.1414C20.1653 7.01914 20.5852 7.24085 20.7075 7.63661C20.8298 8.03237 20.6081 8.45231 20.2123 8.57457C15.1771 10.1301 8.82676 10.1301 3.79058 8.57458C3.39482 8.45234 3.17308 8.03242 3.29532 7.63665Z" fill="#051C2C"/>
<path fill-rule="evenodd" clip-rule="evenodd" d="M3.79054 15.4255C8.82578 13.8699 15.1761 13.8699 20.2123 15.4254C20.608 15.5477 20.8298 15.9676 20.7075 16.3634C20.5853 16.7591 20.1653 16.9809 19.7696 16.8586C15.0218 15.3922 8.98006 15.3922 4.2333 16.8586C3.83754 16.9809 3.4176 16.7592 3.29533 16.3634C3.17307 15.9677 3.39478 15.5477 3.79054 15.4255Z" fill="#051C2C"/>
</svg>
