<svg width="24" height="24" viewBox="0 0 24 24" fill="none" xmlns="http://www.w3.org/2000/svg">
<path fill-rule="evenodd" clip-rule="evenodd" d="M16 1.25C16.4142 1.25 16.75 1.58579 16.75 2V6C16.75 6.41421 16.4142 6.75 16 6.75C15.5858 6.75 15.25 6.41421 15.25 6V2C15.25 1.58579 15.5858 1.25 16 1.25Z" fill="#051C2C"/>
<path fill-rule="evenodd" clip-rule="evenodd" d="M8 1.25C8.41421 1.25 8.75 1.58579 8.75 2V6C8.75 6.41421 8.41421 6.75 8 6.75C7.58579 6.75 7.25 6.41421 7.25 6V2C7.25 1.58579 7.58579 1.25 8 1.25Z" fill="#051C2C"/>
<path fill-rule="evenodd" clip-rule="evenodd" d="M2.25 9C2.25 8.58579 2.58579 8.25 3 8.25H21C21.4142 8.25 21.75 8.58579 21.75 9C21.75 9.41421 21.4142 9.75 21 9.75H3C2.58579 9.75 2.25 9.41421 2.25 9Z" fill="#051C2C"/>
<path fill-rule="evenodd" clip-rule="evenodd" d="M2.25 6C2.25 4.48079 3.48079 3.25 5 3.25H19C20.5192 3.25 21.75 4.48079 21.75 6V19C21.75 20.5192 20.5192 21.75 19 21.75H5C3.48079 21.75 2.25 20.5192 2.25 19V6ZM5 4.75C4.30921 4.75 3.75 5.30921 3.75 6V19C3.75 19.6908 4.30921 20.25 5 20.25H19C19.6908 20.25 20.25 19.6908 20.25 19V6C20.25 5.30921 19.6908 4.75 19 4.75H5Z" fill="#051C2C"/>
<path fill-rule="evenodd" clip-rule="evenodd" d="M5.26564 12.9845C5.26861 13.9484 6.05104 14.729 7.01563 14.729C7.98206 14.729 8.76563 13.9454 8.76563 12.979C8.76563 12.0087 7.97816 11.229 7.01463 11.229C6.05209 11.229 5.26149 12.01 5.26564 12.9845ZM6.76563 12.979C6.76463 12.841 6.87663 12.729 7.01463 12.729C7.01497 12.729 7.0153 12.729 7.01563 12.729C7.15295 12.7295 7.26367 12.8394 7.26561 12.9754C7.26562 12.9766 7.26563 12.9778 7.26563 12.979C7.26563 13.117 7.15363 13.229 7.01563 13.229C7.0153 13.229 7.01497 13.229 7.01463 13.229C6.87709 13.2285 6.76563 13.1167 6.76563 12.979Z" fill="#051C2C"/>
<path fill-rule="evenodd" clip-rule="evenodd" d="M10.2656 12.9845C10.2686 13.9484 11.051 14.729 12.0156 14.729C12.9821 14.729 13.7656 13.9454 13.7656 12.979C13.7656 12.0087 12.9782 11.229 12.0146 11.229C11.0521 11.229 10.2615 12.01 10.2656 12.9845ZM11.7656 12.979C11.7646 12.841 11.8766 12.729 12.0146 12.729C12.015 12.729 12.0153 12.729 12.0156 12.729C12.153 12.7295 12.2637 12.8394 12.2656 12.9754C12.2656 12.9766 12.2656 12.9778 12.2656 12.979C12.2656 13.117 12.1536 13.229 12.0156 13.229C12.0153 13.229 12.015 13.229 12.0146 13.229C11.8771 13.2285 11.7656 13.1167 11.7656 12.979Z" fill="#051C2C"/>
<path fill-rule="evenodd" clip-rule="evenodd" d="M15.2656 12.9845C15.2686 13.9484 16.051 14.729 17.0156 14.729C17.9821 14.729 18.7656 13.9454 18.7656 12.979C18.7656 12.0087 17.9782 11.229 17.0146 11.229C16.0521 11.229 15.2615 12.01 15.2656 12.9845ZM16.7656 12.979C16.7646 12.841 16.8766 12.729 17.0146 12.729C17.015 12.729 17.0153 12.729 17.0156 12.729C17.153 12.7295 17.2637 12.8394 17.2656 12.9754C17.2656 12.9766 17.2656 12.9778 17.2656 12.979C17.2656 13.117 17.1536 13.229 17.0156 13.229C17.0153 13.229 17.015 13.229 17.0146 13.229C16.8771 13.2285 16.7656 13.1167 16.7656 12.979Z" fill="#051C2C"/>
<path fill-rule="evenodd" clip-rule="evenodd" d="M5.26564 16.9845C5.26861 17.9484 6.05104 18.729 7.01563 18.729C7.98206 18.729 8.76563 17.9454 8.76563 16.979C8.76563 16.0087 7.97816 15.229 7.01463 15.229C6.05209 15.229 5.26149 16.01 5.26564 16.9845ZM6.76563 16.979C6.76463 16.841 6.87663 16.729 7.01463 16.729C7.01497 16.729 7.0153 16.729 7.01563 16.729C7.15295 16.7295 7.26367 16.8394 7.26561 16.9754C7.26562 16.9766 7.26563 16.9778 7.26563 16.979C7.26563 17.117 7.15363 17.229 7.01563 17.229C7.0153 17.229 7.01497 17.229 7.01463 17.229C6.87709 17.2285 6.76563 17.1167 6.76563 16.979Z" fill="#051C2C"/>
<path fill-rule="evenodd" clip-rule="evenodd" d="M10.2656 16.9845C10.2686 17.9484 11.051 18.729 12.0156 18.729C12.9821 18.729 13.7656 17.9454 13.7656 16.979C13.7656 16.0087 12.9782 15.229 12.0146 15.229C11.0521 15.229 10.2615 16.01 10.2656 16.9845ZM11.7656 16.979C11.7646 16.841 11.8766 16.729 12.0146 16.729C12.015 16.729 12.0153 16.729 12.0156 16.729C12.153 16.7295 12.2637 16.8394 12.2656 16.9754C12.2656 16.9766 12.2656 16.9778 12.2656 16.979C12.2656 17.117 12.1536 17.229 12.0156 17.229C12.0153 17.229 12.015 17.229 12.0146 17.229C11.8771 17.2285 11.7656 17.1167 11.7656 16.979Z" fill="#051C2C"/>
</svg>
