<?xml version="1.0" ?>
<!DOCTYPE svg  PUBLIC '-//W3C//DTD SVG 1.1//EN'  'http://www.w3.org/Graphics/SVG/1.1/DTD/svg11.dtd'>
<!-- Uploaded to: SVG Repo, www.svgrepo.com, Generator: SVG Repo Mixer Tools -->
<svg width="800px" height="800px" viewBox="0 0 32 32" enable-background="new 0 0 32 32" version="1.1" xml:space="preserve" xmlns="http://www.w3.org/2000/svg" xmlns:xlink="http://www.w3.org/1999/xlink">
<g id="Layer_2"/>
<g id="Layer_3"/>
<g id="Layer_4"/>
<g id="Layer_5"/>
<g id="Layer_6"/>
<g id="Layer_7"/>
<g id="Layer_8"/>
<g id="Layer_9"/>
<g id="Layer_10"/>
<g id="Layer_11"/>
<g id="Layer_12"/>
<g id="Layer_13"/>
<g id="Layer_14"/>
<g id="Layer_15"/>
<g id="Layer_16"/>
<g id="Layer_17"/>
<g id="Layer_18"/>
<g id="Layer_19">
<g>
<g>
<polygon fill="#11A9F3" points="10.11,26.7284 10,26.787 10,26.6918    "/>
</g>
<path d="M30.45,9.0999c-0.34-0.1245-0.75-0.1026-1.05,0.066L22,13.2323l-0.11,0.0586l-11.44-4.191    c-0.14-0.0513-0.3-0.0806-0.45-0.0806H9.99c-0.05,0-0.09,0-0.13,0.0073C9.81,9.034,9.77,9.034,9.73,9.0486    C9.68,9.056,9.64,9.0706,9.59,9.0852c-0.04,0.0147-0.07,0.0293-0.11,0.044H9.47C9.44,9.1439,9.42,9.1512,9.4,9.1659l-8,4.3961    C1.15,13.7012,1,13.921,1,14.1482v16.1192c0,0.2784,0.21,0.5348,0.55,0.6521C1.69,30.978,1.85,31,2,31    c0.21,0,0.42-0.0513,0.6-0.1465L10,26.787v-0.0953l0.11,0.0366l11.44,4.191C21.69,30.978,21.85,31,22,31    c0.09,0,0.18-0.0073,0.27-0.0293c0.02,0,0.03-0.0073,0.04-0.0073c0.07-0.0147,0.14-0.0367,0.2-0.066    c0.01,0,0.01-0.0073,0.02-0.0073c0.03-0.0147,0.05-0.022,0.0699-0.0366l8-4.3961c0.25-0.1392,0.4-0.359,0.4-0.5861V9.752    C31,9.4736,30.79,9.2171,30.45,9.0999z" fill="#16BCD4"/>
<path d="M22,13.3349V31c-0.15,0-0.31-0.0293-0.45-0.0806l-11.44-4.191L10,26.6918V9.0193    c0.15,0,0.31,0.0293,0.45,0.0806l11.44,4.191L22,13.3349z" fill="#2197F3"/>
</g>
<path d="M22,1c-3.86,0-7,3.09-7,6.89c0,3.58,5.66,9.2,6.3,9.83C21.5,17.91,21.75,18,22,18s0.5-0.09,0.7-0.28   c0.64-0.63,6.3-6.25,6.3-9.83C29,4.09,25.86,1,22,1z" fill="#3F51B5"/>
<path d="M24,7.89c0,1.11-0.9,2-2,2s-2-0.89-2-2c0-1.1,0.9-2,2-2S24,6.79,24,7.89z" fill="#2197F3"/>
</g>
<g id="Maps_11_"/>
<g id="Maps_10_"/>
<g id="Maps_9_"/>
<g id="Maps_8_"/>
<g id="Maps_7_"/>
<g id="Maps_6_"/>
<g id="Maps_5_"/>
<g id="Maps_4_"/>
<g id="Maps_3_"/>
<g id="Maps_2_"/>
<g id="Maps_1_"/>
<g id="Maps"/>
</svg>