<svg width="24" height="24" viewBox="0 0 24 24" fill="none" xmlns="http://www.w3.org/2000/svg">
<path fill-rule="evenodd" clip-rule="evenodd" d="M13.5927 10.4101C12.7138 9.5305 11.2891 9.53009 10.4088 10.4101C9.53012 11.2905 9.53079 12.7167 10.4084 13.5945C11.2889 14.4732 12.7152 14.4724 13.5929 13.5947C14.4714 12.7142 14.4706 11.288 13.5929 10.4103M14.6527 9.34881C13.1876 7.88357 10.8133 7.88426 9.34792 9.34966L9.34747 9.35012C7.88443 10.8157 7.88378 13.1912 9.34792 14.6553L9.34837 14.6558C10.8139 16.1188 13.1894 16.1195 14.6536 14.6553L14.654 14.6549C16.117 13.1894 16.1177 10.8141 14.6538 9.34989" fill="#051C2C"/>
<path fill-rule="evenodd" clip-rule="evenodd" d="M12 5.75C8.56983 5.75 5.49798 7.60008 4.11971 10.4176L3.43974 10.0849L4.11971 10.4176C3.87516 10.9175 3.75 11.4569 3.75 12C3.75 12.5431 3.87516 13.0825 4.11971 13.5824C5.49798 16.3999 8.56983 18.25 12 18.25C15.4302 18.25 18.502 16.3999 19.8803 13.5824C20.1248 13.0825 20.25 12.5431 20.25 12C20.25 11.4569 20.1248 10.9175 19.8803 10.4176C18.502 7.60008 15.4302 5.75 12 5.75ZM2.77229 9.75843C4.42402 6.38192 8.04817 4.25 12 4.25C15.9518 4.25 19.576 6.38192 21.2277 9.75843C21.5712 10.4605 21.75 11.2251 21.75 12C21.75 12.7749 21.5712 13.5395 21.2277 14.2416C19.576 17.6181 15.9518 19.75 12 19.75C8.04817 19.75 4.42402 17.6181 2.77229 14.2416C2.42884 13.5395 2.25 12.7749 2.25 12C2.25 11.2251 2.42884 10.4605 2.77229 9.75843Z" fill="#051C2C"/>
</svg>
