<svg width="24" height="24" viewBox="0 0 24 24" fill="none" xmlns="http://www.w3.org/2000/svg">
<path fill-rule="evenodd" clip-rule="evenodd" d="M11.0889 9.06077C11.3002 9.41704 11.1827 9.87714 10.8264 10.0884C10.0174 10.5682 9.59166 11.5002 9.75861 12.4259C9.92555 13.3515 10.6501 14.076 11.5757 14.243C12.5014 14.4099 13.4333 13.9842 13.9131 13.1752C14.1244 12.8189 14.5845 12.7014 14.9408 12.9127C15.2971 13.1239 15.4146 13.5841 15.2033 13.9403C14.404 15.288 12.8515 15.9973 11.3095 15.7192C9.76745 15.441 8.56053 14.2341 8.28242 12.6921C8.00431 11.1501 8.71355 9.59756 10.0613 8.79827C10.4175 8.58698 10.8776 8.7045 11.0889 9.06077Z" fill="#051C2C"/>
<path fill-rule="evenodd" clip-rule="evenodd" d="M7.88282 5.86823C8.07723 6.23399 7.93832 6.68809 7.57257 6.8825C6.08089 7.67537 4.87228 8.91192 4.11372 10.4213C3.62433 11.4151 3.62355 12.5795 4.1114 13.5739C5.63744 16.4997 8.68661 18.3117 11.9865 18.253L12.0021 18.2528C14.0025 18.2589 15.9494 17.6074 17.5432 16.3985C17.8732 16.1482 18.3436 16.2128 18.594 16.5428C18.8443 16.8729 18.7797 17.3433 18.4496 17.5936C16.5959 18.9997 14.3319 19.7582 12.0054 19.7529C8.13678 19.8188 4.5632 17.6916 2.77695 14.2589L2.76967 14.2446C2.07157 12.8296 2.07157 11.1703 2.76967 9.7553L2.77201 9.75056L2.77202 9.75057C3.67003 7.96226 5.10154 6.49719 6.86855 5.55798C7.23431 5.36357 7.68841 5.50248 7.88282 5.86823Z" fill="#051C2C"/>
<path fill-rule="evenodd" clip-rule="evenodd" d="M11.9944 4.247C15.8635 4.18045 19.4379 6.30777 21.2244 9.7409L21.2316 9.75527C21.9297 11.1703 21.9297 12.8295 21.2316 14.2445C21.194 14.3212 21.1529 14.3864 21.1305 14.422L21.1294 14.4237C21.1009 14.469 21.0956 14.4776 21.0919 14.4848C20.8983 14.851 20.4446 14.991 20.0783 14.7975C19.7121 14.604 19.5721 14.1502 19.7656 13.784C19.7985 13.7219 19.835 13.6641 19.8544 13.6335C19.8565 13.6302 19.8584 13.6272 19.86 13.6245C19.8816 13.5903 19.8855 13.5827 19.8855 13.5828L19.8864 13.5809C20.377 12.5866 20.3781 11.4211 19.8899 10.426C18.3639 7.5001 15.3147 5.68811 12.0148 5.74687L12.0015 5.74711V5.74699C11.8828 5.74699 11.7913 5.75549 11.6725 5.76652C11.5939 5.77382 11.5034 5.78222 11.3853 5.79001C10.972 5.81724 10.6148 5.50425 10.5876 5.09093C10.5604 4.67761 10.8733 4.32048 11.2867 4.29325C11.3277 4.29055 11.3818 4.28576 11.4439 4.28025C11.6026 4.26619 11.8137 4.24748 11.9944 4.247Z" fill="#051C2C"/>
<path fill-rule="evenodd" clip-rule="evenodd" d="M3.46576 2.46589C3.75866 2.17299 4.23353 2.17299 4.52642 2.46589L21.5335 19.473C21.8264 19.7659 21.8264 20.2407 21.5335 20.5336C21.2406 20.8265 20.7657 20.8265 20.4728 20.5336L3.46576 3.52655C3.17287 3.23365 3.17287 2.75878 3.46576 2.46589Z" fill="#051C2C"/>
</svg>
