<svg width="24" height="24" viewBox="0 0 24 24" fill="none" xmlns="http://www.w3.org/2000/svg">
<path fill-rule="evenodd" clip-rule="evenodd" d="M12 3.75C7.44321 3.75 3.75 7.44321 3.75 12C3.75 16.5568 7.44321 20.25 12 20.25C16.5568 20.25 20.25 16.5568 20.25 12C20.25 7.44321 16.5568 3.75 12 3.75ZM2.25 12C2.25 6.61479 6.61479 2.25 12 2.25C17.3852 2.25 21.75 6.61479 21.75 12C21.75 17.3852 17.3852 21.75 12 21.75C6.61479 21.75 2.25 17.3852 2.25 12Z" fill="#051C2C"/>
<path fill-rule="evenodd" clip-rule="evenodd" d="M10.25 12C10.25 11.5858 10.5858 11.25 11 11.25H12C12.4142 11.25 12.75 11.5858 12.75 12V17C12.75 17.4142 12.4142 17.75 12 17.75C11.5858 17.75 11.25 17.4142 11.25 17V12.75H11C10.5858 12.75 10.25 12.4142 10.25 12Z" fill="#051C2C"/>
<path fill-rule="evenodd" clip-rule="evenodd" d="M10.5 8.25362C10.502 8.94224 11.0609 9.5 11.75 9.5C12.4403 9.5 13 8.94028 13 8.25C13 7.55712 12.4377 7 11.749 7C11.0613 7 10.4969 7.55797 10.5 8.25362ZM11.5 8.25C11.499 8.112 11.611 8 11.749 8C11.7493 8 11.7497 8 11.75 8C11.8873 8.00053 11.998 8.11038 12 8.24638C12 8.24758 12 8.24879 12 8.25C12 8.388 11.888 8.5 11.75 8.5C11.7497 8.5 11.7493 8.5 11.749 8.5C11.6115 8.49946 11.5 8.38767 11.5 8.25Z" fill="#051C2C"/>
</svg>
